# xmcd
#
# Track frame offsets: 
#        150
#        16650
#        36450
#        54225
#        73427
#        91052
#        109952
#        125930
#        142055
#        160430
#
# Disc length: 2378 seconds
#
# Revision: 5
# Processed by: cddbd v1.5.2PL0 Copyright (c) Steve Scherf et al.
# Submitted via: ExactAudioCopy v0.95b4
#
DISCID=9409480a
DTITLE=Enrique Iglesias - Bailamos
DYEAR=1999
DGENRE=Latin
TTITLE0=Bailamos
TTITLE1=Si Juras Regresar
TTITLE2=Tu Vacío
TTITLE3=El Muro
TTITLE4=Falta Tanto Amor
TTITLE5=Esperanza (Radio Mix)
TTITLE6=Only You (Solo En Tí) (English Version)
TTITLE7=Inalcanzable
TTITLE8=Viviré Y Moriré
TTITLE9=Nunca Te Olvidaré (Radio Mix)
EXTD=YEAR: 1999
EXTT0=
EXTT1=
EXTT2=
EXTT3=
EXTT4=
EXTT5=
EXTT6=
EXTT7=
EXTT8=
EXTT9=
PLAYORDER=
